<mxfile host="app.diagrams.net" modified="2024-02-08T08:22:31.155Z" agent="Mozilla/5.0 (Windows NT 10.0; Win64; x64) AppleWebKit/537.36 (KHTML, like Gecko) Chrome/121.0.0.0 Safari/537.36" etag="oh01GO8jozuCTnjlZwkd" version="23.1.2" type="github">
  <diagram name="Page-1" id="aRs0KEkiYY97rro_R4DV">
    <mxGraphModel dx="2013" dy="991" grid="1" gridSize="10" guides="1" tooltips="1" connect="1" arrows="1" fold="1" page="1" pageScale="1" pageWidth="850" pageHeight="1100" math="0" shadow="0">
      <root>
        <mxCell id="0" />
        <mxCell id="1" parent="0" />
        <mxCell id="a0-7P9eU65IwxBjQ8Ryn-2" value="" style="rounded=0;whiteSpace=wrap;html=1;rotation=90;" parent="1" vertex="1">
          <mxGeometry x="-91.75" y="315.25" width="1034.5" height="524.5" as="geometry" />
        </mxCell>
        <mxCell id="a0-7P9eU65IwxBjQ8Ryn-5" value="" style="endArrow=none;html=1;rounded=0;exitX=0.097;exitY=1.008;exitDx=0;exitDy=0;exitPerimeter=0;" parent="1" source="a0-7P9eU65IwxBjQ8Ryn-2" edge="1">
          <mxGeometry width="50" height="50" relative="1" as="geometry">
            <mxPoint x="180" y="290" as="sourcePoint" />
            <mxPoint x="690" y="160" as="targetPoint" />
          </mxGeometry>
        </mxCell>
        <mxCell id="a0-7P9eU65IwxBjQ8Ryn-6" value="&lt;h1&gt;Use case perpus digital&lt;/h1&gt;" style="text;html=1;strokeColor=none;fillColor=none;spacing=5;spacingTop=-20;whiteSpace=wrap;overflow=hidden;rounded=0;" parent="1" vertex="1">
          <mxGeometry x="280" y="90" width="290" height="40" as="geometry" />
        </mxCell>
        <mxCell id="a0-7P9eU65IwxBjQ8Ryn-20" style="edgeStyle=orthogonalEdgeStyle;rounded=0;orthogonalLoop=1;jettySize=auto;html=1;exitX=0.5;exitY=1;exitDx=0;exitDy=0;" parent="1" source="a0-7P9eU65IwxBjQ8Ryn-7" target="a0-7P9eU65IwxBjQ8Ryn-11" edge="1">
          <mxGeometry relative="1" as="geometry" />
        </mxCell>
        <mxCell id="a0-7P9eU65IwxBjQ8Ryn-7" value="" style="ellipse;whiteSpace=wrap;html=1;" parent="1" vertex="1">
          <mxGeometry x="322.38" y="180" width="217" height="110" as="geometry" />
        </mxCell>
        <mxCell id="a0-7P9eU65IwxBjQ8Ryn-24" style="edgeStyle=orthogonalEdgeStyle;rounded=0;orthogonalLoop=1;jettySize=auto;html=1;exitX=1;exitY=0.3333333333333333;exitDx=0;exitDy=0;exitPerimeter=0;entryX=0;entryY=0.5;entryDx=0;entryDy=0;" parent="1" source="a0-7P9eU65IwxBjQ8Ryn-9" target="a0-7P9eU65IwxBjQ8Ryn-13" edge="1">
          <mxGeometry relative="1" as="geometry" />
        </mxCell>
        <mxCell id="a0-7P9eU65IwxBjQ8Ryn-9" value="user" style="shape=umlActor;verticalLabelPosition=bottom;verticalAlign=top;html=1;outlineConnect=0;" parent="1" vertex="1">
          <mxGeometry x="40" y="420" width="75" height="150" as="geometry" />
        </mxCell>
        <mxCell id="a0-7P9eU65IwxBjQ8Ryn-21" style="edgeStyle=orthogonalEdgeStyle;rounded=0;orthogonalLoop=1;jettySize=auto;html=1;exitX=0.5;exitY=1;exitDx=0;exitDy=0;" parent="1" source="a0-7P9eU65IwxBjQ8Ryn-11" target="a0-7P9eU65IwxBjQ8Ryn-17" edge="1">
          <mxGeometry relative="1" as="geometry" />
        </mxCell>
        <mxCell id="a0-7P9eU65IwxBjQ8Ryn-11" value="" style="ellipse;whiteSpace=wrap;html=1;" parent="1" vertex="1">
          <mxGeometry x="312.38" y="340" width="237" height="110" as="geometry" />
        </mxCell>
        <mxCell id="a0-7P9eU65IwxBjQ8Ryn-12" value="&lt;font style=&quot;font-size: 24px;&quot;&gt;tempilan perpus takaan&lt;/font&gt;" style="text;html=1;strokeColor=none;fillColor=none;align=center;verticalAlign=middle;whiteSpace=wrap;rounded=0;" parent="1" vertex="1">
          <mxGeometry x="320.63" y="380" width="220.5" height="30" as="geometry" />
        </mxCell>
        <mxCell id="a0-7P9eU65IwxBjQ8Ryn-13" value="&lt;span style=&quot;font-size: 24px;&quot;&gt;form pengunjung&lt;/span&gt;" style="text;html=1;strokeColor=none;fillColor=none;align=center;verticalAlign=middle;whiteSpace=wrap;rounded=0;" parent="1" vertex="1">
          <mxGeometry x="324.13" y="220" width="220.5" height="30" as="geometry" />
        </mxCell>
        <mxCell id="a0-7P9eU65IwxBjQ8Ryn-22" style="edgeStyle=orthogonalEdgeStyle;rounded=0;orthogonalLoop=1;jettySize=auto;html=1;exitX=0.5;exitY=1;exitDx=0;exitDy=0;" parent="1" source="a0-7P9eU65IwxBjQ8Ryn-17" target="a0-7P9eU65IwxBjQ8Ryn-18" edge="1">
          <mxGeometry relative="1" as="geometry" />
        </mxCell>
        <mxCell id="a0-7P9eU65IwxBjQ8Ryn-17" value="" style="ellipse;whiteSpace=wrap;html=1;shadow=1;" parent="1" vertex="1">
          <mxGeometry x="312.38" y="510" width="237" height="110" as="geometry" />
        </mxCell>
        <mxCell id="a0-7P9eU65IwxBjQ8Ryn-14" value="&lt;span style=&quot;font-size: 24px;&quot;&gt;pencarian buku&lt;/span&gt;" style="text;html=1;strokeColor=none;fillColor=none;align=center;verticalAlign=middle;whiteSpace=wrap;rounded=0;" parent="1" vertex="1">
          <mxGeometry x="318.63" y="550" width="220.5" height="30" as="geometry" />
        </mxCell>
        <mxCell id="a0-7P9eU65IwxBjQ8Ryn-23" style="edgeStyle=orthogonalEdgeStyle;rounded=0;orthogonalLoop=1;jettySize=auto;html=1;exitX=0.5;exitY=1;exitDx=0;exitDy=0;entryX=0.5;entryY=0;entryDx=0;entryDy=0;" parent="1" source="a0-7P9eU65IwxBjQ8Ryn-18" target="a0-7P9eU65IwxBjQ8Ryn-19" edge="1">
          <mxGeometry relative="1" as="geometry" />
        </mxCell>
        <mxCell id="a0-7P9eU65IwxBjQ8Ryn-18" value="" style="ellipse;whiteSpace=wrap;html=1;shadow=1;" parent="1" vertex="1">
          <mxGeometry x="312.63" y="700" width="237" height="110" as="geometry" />
        </mxCell>
        <mxCell id="a0-7P9eU65IwxBjQ8Ryn-15" value="&lt;span style=&quot;font-size: 24px;&quot;&gt;Detil buku&lt;/span&gt;" style="text;html=1;strokeColor=none;fillColor=none;align=center;verticalAlign=middle;whiteSpace=wrap;rounded=0;" parent="1" vertex="1">
          <mxGeometry x="322.88" y="740" width="220.5" height="30" as="geometry" />
        </mxCell>
        <mxCell id="a0-7P9eU65IwxBjQ8Ryn-19" value="" style="ellipse;whiteSpace=wrap;html=1;shadow=1;" parent="1" vertex="1">
          <mxGeometry x="312.38" y="900" width="237" height="110" as="geometry" />
        </mxCell>
        <mxCell id="a0-7P9eU65IwxBjQ8Ryn-16" value="&lt;span style=&quot;font-size: 24px;&quot;&gt;Riwayat Buku&lt;/span&gt;" style="text;html=1;strokeColor=none;fillColor=none;align=center;verticalAlign=middle;whiteSpace=wrap;rounded=0;" parent="1" vertex="1">
          <mxGeometry x="319.13" y="940" width="220.5" height="30" as="geometry" />
        </mxCell>
        <mxCell id="a0-7P9eU65IwxBjQ8Ryn-27" style="edgeStyle=orthogonalEdgeStyle;rounded=0;orthogonalLoop=1;jettySize=auto;html=1;exitX=0;exitY=0.3333333333333333;exitDx=0;exitDy=0;exitPerimeter=0;entryX=1;entryY=0.75;entryDx=0;entryDy=0;" parent="1" target="a0-7P9eU65IwxBjQ8Ryn-13" edge="1">
          <mxGeometry relative="1" as="geometry">
            <mxPoint x="740" y="470" as="sourcePoint" />
          </mxGeometry>
        </mxCell>
        <mxCell id="G6GWrjz_j0X4Iaeb6Lsm-2" value="petugas perpus&lt;br&gt;" style="shape=umlActor;verticalLabelPosition=bottom;verticalAlign=top;html=1;outlineConnect=0;" vertex="1" parent="1">
          <mxGeometry x="740" y="420" width="75" height="150" as="geometry" />
        </mxCell>
      </root>
    </mxGraphModel>
  </diagram>
</mxfile>
